<?xml version="1.0" encoding="utf-8"?>
<!-- Generator: Adobe Illustrator 24.1.0, SVG Export Plug-In . SVG Version: 6.00 Build 0)  -->
<svg version="1.1" id="Layer" xmlns="http://www.w3.org/2000/svg" xmlns:xlink="http://www.w3.org/1999/xlink" x="0px" y="0px"
	 viewBox="0 0 200 200" style="enable-background:new 0 0 200 200;" xml:space="preserve">
<style type="text/css">
	.st0{fill-rule:evenodd;clip-rule:evenodd;fill:#222222;}
</style>
<path class="st0" d="M22.2,87.5h28.1c5.2-33.8,34.4-59.7,69.7-59.7c38.9,0,70.5,31.5,70.5,70.5c0,38.9-31.5,70.5-70.5,70.5
	c-35.3,0-64.5-25.9-69.7-59.7H22.2c-3.7,0-6.7-3-6.7-6.7v-8C15.5,90.5,18.5,87.5,22.2,87.5z M120,149c28,0,50.8-22.7,50.8-50.8
	c0-28-22.7-50.8-50.8-50.8c-28,0-50.8,22.7-50.8,50.8C69.2,126.3,92,149,120,149z"/>
</svg>
