<?xml version="1.0" encoding="utf-8"?>
<!-- Generator: Adobe Illustrator 24.1.0, SVG Export Plug-In . SVG Version: 6.00 Build 0)  -->
<svg version="1.1" id="Layer" xmlns="http://www.w3.org/2000/svg" xmlns:xlink="http://www.w3.org/1999/xlink" x="0px" y="0px"
	 viewBox="0 0 200 200" style="enable-background:new 0 0 200 200;" xml:space="preserve">
<style type="text/css">
	.st0{display:none;fill-rule:evenodd;clip-rule:evenodd;fill:#222222;}
	.st1{fill-rule:evenodd;clip-rule:evenodd;fill:#222222;}
</style>
<path id="Shape" class="st0" d="M155.7,75.6h39.5c2.6,0,4.8,2.1,4.8,4.8v39.3c0,2.6-2.1,4.8-4.8,4.8h-39.5
	c-10.3,32.1-40.4,55.4-76,55.4C35.7,179.8,0,144.1,0,100s35.7-79.8,79.8-79.8C115.3,20.2,145.4,43.5,155.7,75.6z M52.4,100
	c0,15.1,12.3,27.4,27.4,27.4s27.4-12.3,27.4-27.4S94.9,72.6,79.8,72.6C64.6,72.6,52.4,84.9,52.4,100z"/>
<path class="st1" d="M183.8,109h-28.1c-5.2,33.8-34.4,59.7-69.7,59.7c-38.9,0-70.5-31.5-70.5-70.5c0-38.9,31.5-70.5,70.5-70.5
	c35.3,0,64.5,25.9,69.7,59.7h28.1c3.7,0,6.7,3,6.7,6.7v8C190.5,106,187.5,109,183.8,109z M86,47.5c-28,0-50.8,22.7-50.8,50.8
	c0,28,22.7,50.8,50.8,50.8c28,0,50.8-22.7,50.8-50.8C136.8,70.2,114,47.5,86,47.5z"/>
</svg>
